<svg xmlns="http://www.w3.org/2000/svg" width="1480" height="850" viewBox="0 0 1480 850">
  <defs>
    <style>
      text { font-family: system-ui, -apple-system, 'Segoe UI', sans-serif; fill: #141b2b; }
      .title { font-size: 25px; font-weight: 700; }
      .head { font-size: 19px; font-weight: 700; }
      .body { font-size: 15px; }
      .small { font-size: 12px; fill: #666979; }
      .white { fill: #fff; }
      .muted { fill: #434654; }
      .border { fill: #fff; stroke: #e6e7ef; stroke-width: 1; }
    </style>
    <filter id="shadow"><feDropShadow dx="0" dy="2" stdDeviation="3" flood-color="#141b2b" flood-opacity=".08"/></filter>
  </defs>
  <rect width="1480" height="850" fill="#f9f9ff"/>
  <text x="42" y="48" class="title">«Надати показники» · макети в поточному стилі</text>
  <text x="42" y="74" class="body muted">Кольори й компоненти повторюють чинні токени застосунку; це ескіз станів, не знімок працюючого середовища.</text>

  <text x="42" y="116" class="head">1. Вибір послуги</text>
  <rect x="42" y="135" width="320" height="650" rx="24" fill="#f9f9ff" stroke="#d7d9e5" filter="url(#shadow)"/>
  <text x="64" y="173" class="body" fill="#1353d8">‹ На головну</text>
  <text x="64" y="214" class="title">Надати показники</text>
  <text x="64" y="240" class="body muted">Оберіть послугу, зробіть фото</text>
  <rect x="60" y="262" width="284" height="78" rx="16" fill="#003fb1"/>
  <text x="78" y="285" class="small white">МАГАЗИН</text>
  <text x="78" y="316" class="head white">Галі Балувані · Центр</text>
  <text x="64" y="365" class="small">Перше подання: до 31 жовтня, 23:59</text>
  <g filter="url(#shadow)">
    <rect x="60" y="384" width="284" height="78" rx="16" class="border"/>
    <rect x="60" y="472" width="284" height="78" rx="16" class="border"/>
    <rect x="60" y="560" width="284" height="78" rx="16" class="border"/>
    <rect x="60" y="648" width="284" height="78" rx="16" class="border"/>
  </g>
  <rect x="74" y="397" width="50" height="50" rx="14" fill="#e8e4f7"/>
  <rect x="74" y="485" width="50" height="50" rx="14" fill="#fdebd8"/>
  <rect x="74" y="573" width="50" height="50" rx="14" fill="#fce2e2"/>
  <rect x="74" y="661" width="50" height="50" rx="14" fill="#f1f3ff"/>
  <text x="89" y="430" font-size="24">💡</text><text x="89" y="518" font-size="24">💧</text>
  <text x="89" y="606" font-size="24">♨️</text><text x="89" y="694" font-size="24">📄</text>
  <text x="138" y="413" class="body" font-weight="700">Електроенергія</text>
  <text x="138" y="435" class="small">Фото лічильника або рахунку</text>
  <text x="138" y="501" class="body" font-weight="700">Вода</text>
  <text x="138" y="523" class="small">Потрібне виправлення</text>
  <text x="138" y="589" class="body" font-weight="700">Опалення</text>
  <text x="138" y="611" class="small">Фото лічильника або рахунку</text>
  <text x="138" y="677" class="body" font-weight="700">Інші послуги</text>
  <text x="138" y="699" class="small">Фото документа або показника</text>
  <text x="323" y="430" class="body muted">›</text><text x="323" y="518" class="body muted">›</text>
  <text x="323" y="606" class="body muted">›</text><text x="323" y="694" class="body muted">›</text>
  <text x="64" y="756" class="small">↓ Попередні місяці: вже подані фото</text>

  <text x="396" y="116" class="head">2. Фото категорії</text>
  <rect x="396" y="135" width="320" height="650" rx="24" fill="#f9f9ff" stroke="#d7d9e5" filter="url(#shadow)"/>
  <text x="418" y="173" class="body" fill="#1353d8">‹ На головну</text>
  <text x="418" y="214" class="title">Надати показники</text>
  <rect x="414" y="248" width="284" height="78" rx="16" fill="#003fb1"/>
  <text x="432" y="274" class="small white">МАГАЗИН</text>
  <text x="432" y="303" class="head white">Галі Балувані · Центр</text>
  <rect x="414" y="350" width="284" height="344" rx="16" class="border" filter="url(#shadow)"/>
  <text x="432" y="386" class="head">💧 Вода</text>
  <text x="432" y="411" class="body muted">Сфотографуйте лічильник або рахунок</text>
  <text x="432" y="449" class="small">Фото · 1–3</text>
  <rect x="432" y="461" width="248" height="73" rx="12" fill="#f1f3ff" stroke="#c3c5d7" stroke-dasharray="5 4"/>
  <text x="476" y="495" class="body" fill="#1353d8">＋ Камера / галерея</text>
  <rect x="432" y="547" width="68" height="68" rx="12" fill="#ddeef1"/>
  <text x="449" y="585" class="small">Фото 1</text>
  <text x="487" y="558" class="body" fill="#ba1a1a">×</text>
  <text x="432" y="643" class="small">Коментар (необов’язково)</text>
  <rect x="432" y="653" width="248" height="29" rx="8" fill="#fff" stroke="#c3c5d7"/>
  <rect x="414" y="716" width="94" height="50" rx="12" fill="#f1f3ff"/>
  <text x="440" y="747" class="body" font-weight="600">Назад</text>
  <rect x="518" y="716" width="180" height="50" rx="12" fill="#1353d8"/>
  <text x="544" y="747" class="body white" font-weight="600">Надіслати фото</text>

  <text x="750" y="116" class="head">3. Адмінка · огляд і перевірка</text>
  <rect x="750" y="135" width="688" height="650" rx="16" fill="#fff" stroke="#e6e7ef" filter="url(#shadow)"/>
  <rect x="750" y="135" width="688" height="67" rx="16" fill="#fff"/>
  <text x="774" y="175" class="head">Показники комунальних послуг</text>
  <line x1="750" y1="202" x2="1438" y2="202" stroke="#e6e7ef"/>
  <text x="774" y="237" class="body" fill="#1353d8" font-weight="700">Огляд фото</text>
  <text x="915" y="237" class="body muted">Подання</text>
  <line x1="774" y1="247" x2="881" y2="247" stroke="#1353d8" stroke-width="3"/>
  <rect x="772" y="269" width="644" height="65" rx="12" fill="#f1f3ff"/>
  <text x="790" y="295" class="body" font-weight="700">Місяць: 01.10–31.10  ▾</text>
  <text x="790" y="318" class="small">Термін першого подання: 31 жовтня, 23:59 за Києвом</text>
  <rect x="772" y="353" width="195" height="78" rx="12" class="border"/>
  <rect x="978" y="353" width="195" height="78" rx="12" class="border"/>
  <rect x="1184" y="353" width="232" height="78" rx="12" class="border"/>
  <text x="790" y="379" class="small">Категорій з фото</text><text x="790" y="413" class="title">12</text>
  <text x="996" y="379" class="small">Без фото</text><text x="996" y="413" class="title">8</text>
  <text x="1202" y="379" class="small">Очікують перевірки</text><text x="1202" y="413" class="title">4</text>
  <rect x="772" y="451" width="644" height="258" rx="12" class="border"/>
  <text x="790" y="480" class="body" font-weight="700">Магазини й категорії</text>
  <rect x="790" y="499" width="608" height="39" fill="#f1f3ff"/>
  <text x="804" y="524" class="small">МАГАЗИН</text><text x="990" y="524" class="small">ПОСЛУГА</text>
  <text x="1130" y="524" class="small">ФОТО</text><text x="1205" y="524" class="small">ПЕРЕВІРКА</text>
  <text x="804" y="572" class="body">Галі Балувані · Центр</text><text x="990" y="572" class="body">Вода</text>
  <text x="1136" y="572" class="body">2</text><text x="1205" y="572" class="body">Подано</text>
  <line x1="790" y1="591" x2="1398" y2="591" stroke="#e6e7ef"/>
  <text x="804" y="626" class="body">Галі Балувані · Центр</text><text x="990" y="626" class="body">Опалення</text>
  <text x="1136" y="626" class="body">0</text><text x="1205" y="626" class="body muted">—</text>
  <text x="790" y="687" class="small">Пересилання в Telegram ще не налаштоване.</text>
  <text x="790" y="746" class="small">Натискання «Відкрити» показує фото, коментар, версії й рішення адміністратора.</text>
  <text x="42" y="823" class="small">Дані в ескізі вигадані для показу інтерфейсу; фактичні магазини, лічильники й статуси беруться з Supabase.</text>
</svg>
